{
	"asset":{
		"generator":"Khronos glTF Blender I/O v4.2.70",
		"version":"2.0"
	},
	"scene":0,
	"scenes":[
		{
			"name":"Scene",
			"nodes":[
				0
			]
		}
	],
	"nodes":[
		{
			"mesh":0,
			"name":"Plane",
			"rotation":[
				0,
				0.14319562911987305,
				0,
				0.9896944165229797
			],
			"scale":[
				2,
				1,
				1
			],
			"translation":[
				0.5699983835220337,
				0,
				-0.03166657313704491
			]
		}
	],
	"materials":[
		{
			"doubleSided":true,
			"name":"Material.001",
			"pbrMetallicRoughness":{
				"baseColorTexture":{
					"index":0
				},
				"metallicFactor":0
			}
		},
		{
			"doubleSided":true,
			"name":"Material",
			"pbrMetallicRoughness":{
				"baseColorFactor":[
					0.800000011920929,
					0.800000011920929,
					0.800000011920929,
					1
				],
				"metallicFactor":0,
				"roughnessFactor":0.5
			}
		}
	],
	"meshes":[
		{
			"name":"Plane",
			"primitives":[
				{
					"attributes":{
						"POSITION":0,
						"NORMAL":1,
						"TEXCOORD_0":2
					},
					"indices":3,
					"material":0
				},
				{
					"attributes":{
						"POSITION":4,
						"NORMAL":5,
						"TEXCOORD_0":6
					},
					"indices":7,
					"material":1
				}
			]
		}
	],
	"textures":[
		{
			"sampler":0,
			"source":0
		}
	],
	"images":[
		{
			"bufferView":4,
			"mimeType":"image/jpeg",
			"name":"WrapReduced2"
		}
	],
	"accessors":[
		{
			"bufferView":0,
			"componentType":5126,
			"count":20010,
			"max":[
				0.18209035694599152,
				0.9516736268997192,
				0.251444935798645
			],
			"min":[
				-0.15884080529212952,
				0.4719250202178955,
				-0.2379583865404129
			],
			"type":"VEC3"
		},
		{
			"bufferView":1,
			"componentType":5126,
			"count":20010,
			"type":"VEC3"
		},
		{
			"bufferView":2,
			"componentType":5126,
			"count":20010,
			"type":"VEC2"
		},
		{
			"bufferView":3,
			"componentType":5123,
			"count":20490,
			"type":"SCALAR"
		},
		{
			"bufferView":5,
			"componentType":5126,
			"count":481,
			"max":[
				0.18209035694599152,
				0.9516736268997192,
				0.25149041414260864
			],
			"min":[
				-0.15884137153625488,
				0.006794005632400513,
				-0.2379583865404129
			],
			"type":"VEC3"
		},
		{
			"bufferView":6,
			"componentType":5126,
			"count":481,
			"type":"VEC3"
		},
		{
			"bufferView":7,
			"componentType":5126,
			"count":481,
			"type":"VEC2"
		},
		{
			"bufferView":8,
			"componentType":5123,
			"count":1407,
			"type":"SCALAR"
		}
	],
	"bufferViews":[
		{
			"buffer":0,
			"byteLength":240120,
			"byteOffset":0,
			"target":34962
		},
		{
			"buffer":0,
			"byteLength":240120,
			"byteOffset":240120,
			"target":34962
		},
		{
			"buffer":0,
			"byteLength":160080,
			"byteOffset":480240,
			"target":34962
		},
		{
			"buffer":0,
			"byteLength":40980,
			"byteOffset":640320,
			"target":34963
		},
		{
			"buffer":0,
			"byteLength":533019,
			"byteOffset":681300
		},
		{
			"buffer":0,
			"byteLength":5772,
			"byteOffset":1214320,
			"target":34962
		},
		{
			"buffer":0,
			"byteLength":5772,
			"byteOffset":1220092,
			"target":34962
		},
		{
			"buffer":0,
			"byteLength":3848,
			"byteOffset":1225864,
			"target":34962
		},
		{
			"buffer":0,
			"byteLength":2814,
			"byteOffset":1229712,
			"target":34963
		}
	],
	"samplers":[
		{
			"magFilter":9729,
			"minFilter":9987,
			"wrapS":33071,
			"wrapT":33071
		}
	],
	"buffers":[
		{
			"byteLength":1232528,
			"uri":"data:application/octet-stream;base64,"
		}
	]
}
