{
	"asset":{
		"generator":"Khronos glTF Blender I/O v4.2.70",
		"version":"2.0"
	},
	"scene":0,
	"scenes":[
		{
			"name":"Scene",
			"nodes":[
				0
			]
		}
	],
	"nodes":[
		{
			"mesh":0,
			"name":"Plane",
			"rotation":[
				0,
				0.14319562911987305,
				0,
				0.9896944165229797
			],
			"scale":[
				2,
				1,
				1
			],
			"translation":[
				0.5699983835220337,
				0,
				-0.03166657313704491
			]
		}
	],
	"materials":[
		{
			"doubleSided":true,
			"name":"Material.001",
			"pbrMetallicRoughness":{
				"baseColorTexture":{
					"index":0
				},
				"metallicFactor":0
			}
		},
		{
			"doubleSided":true,
			"name":"Material",
			"pbrMetallicRoughness":{
				"baseColorFactor":[
					0.800000011920929,
					0.800000011920929,
					0.800000011920929,
					1
				],
				"metallicFactor":0,
				"roughnessFactor":0.5
			}
		}
	],
	"meshes":[
		{
			"name":"Plane",
			"primitives":[
				{
					"attributes":{
						"POSITION":0,
						"NORMAL":1,
						"TEXCOORD_0":2
					},
					"indices":3,
					"material":0
				},
				{
					"attributes":{
						"POSITION":4,
						"NORMAL":5,
						"TEXCOORD_0":6
					},
					"indices":7,
					"material":1
				}
			]
		}
	],
	"textures":[
		{
			"sampler":0,
			"source":0
		}
	],
	"images":[
		{
			"bufferView":4,
			"mimeType":"image/jpeg",
			"name":"WrapReduced2"
		}
	],
	"accessors":[
		{
			"bufferView":0,
			"componentType":5126,
			"count":18379,
			"max":[
				-0.6221015453338623,
				0.6761482954025269,
				-0.5780861377716064
			],
			"min":[
				-0.9353583455085754,
				0.19525207579135895,
				-0.9766449928283691
			],
			"type":"VEC3"
		},
		{
			"bufferView":1,
			"componentType":5126,
			"count":18379,
			"type":"VEC3"
		},
		{
			"bufferView":2,
			"componentType":5126,
			"count":18379,
			"type":"VEC2"
		},
		{
			"bufferView":3,
			"componentType":5123,
			"count":18867,
			"type":"SCALAR"
		},
		{
			"bufferView":5,
			"componentType":5126,
			"count":371,
			"max":[
				-0.6220933198928833,
				0.6761482954025269,
				-0.5780861377716064
			],
			"min":[
				-0.9353908896446228,
				0.006794005632400513,
				-0.976700484752655
			],
			"type":"VEC3"
		},
		{
			"bufferView":6,
			"componentType":5126,
			"count":371,
			"type":"VEC3"
		},
		{
			"bufferView":7,
			"componentType":5126,
			"count":371,
			"type":"VEC2"
		},
		{
			"bufferView":8,
			"componentType":5123,
			"count":1083,
			"type":"SCALAR"
		}
	],
	"bufferViews":[
		{
			"buffer":0,
			"byteLength":220548,
			"byteOffset":0,
			"target":34962
		},
		{
			"buffer":0,
			"byteLength":220548,
			"byteOffset":220548,
			"target":34962
		},
		{
			"buffer":0,
			"byteLength":147032,
			"byteOffset":441096,
			"target":34962
		},
		{
			"buffer":0,
			"byteLength":37734,
			"byteOffset":588128,
			"target":34963
		},
		{
			"buffer":0,
			"byteLength":533019,
			"byteOffset":625864
		},
		{
			"buffer":0,
			"byteLength":4452,
			"byteOffset":1158884,
			"target":34962
		},
		{
			"buffer":0,
			"byteLength":4452,
			"byteOffset":1163336,
			"target":34962
		},
		{
			"buffer":0,
			"byteLength":2968,
			"byteOffset":1167788,
			"target":34962
		},
		{
			"buffer":0,
			"byteLength":2166,
			"byteOffset":1170756,
			"target":34963
		}
	],
	"samplers":[
		{
			"magFilter":9729,
			"minFilter":9987,
			"wrapS":33071,
			"wrapT":33071
		}
	],
	"buffers":[
		{
			"byteLength":1172924,
			"uri":"data:application/octet-stream;base64,"
		}
	]
}
