{
	"asset":{
		"generator":"Khronos glTF Blender I/O v4.2.70",
		"version":"2.0"
	},
	"scene":0,
	"scenes":[
		{
			"name":"Scene",
			"nodes":[
				0
			]
		}
	],
	"nodes":[
		{
			"mesh":0,
			"name":"Plane",
			"rotation":[
				0,
				0.14319562911987305,
				0,
				0.9896944165229797
			],
			"scale":[
				2,
				1,
				1
			],
			"translation":[
				0.5699983835220337,
				0,
				-0.03166657313704491
			]
		}
	],
	"materials":[
		{
			"doubleSided":true,
			"name":"Material.001",
			"pbrMetallicRoughness":{
				"baseColorTexture":{
					"index":0
				},
				"metallicFactor":0
			}
		},
		{
			"doubleSided":true,
			"name":"Material",
			"pbrMetallicRoughness":{
				"baseColorFactor":[
					0.800000011920929,
					0.800000011920929,
					0.800000011920929,
					1
				],
				"metallicFactor":0,
				"roughnessFactor":0.5
			}
		}
	],
	"meshes":[
		{
			"name":"Plane",
			"primitives":[
				{
					"attributes":{
						"POSITION":0,
						"NORMAL":1,
						"TEXCOORD_0":2
					},
					"indices":3,
					"material":0
				},
				{
					"attributes":{
						"POSITION":4,
						"NORMAL":5,
						"TEXCOORD_0":6
					},
					"indices":7,
					"material":1
				}
			]
		}
	],
	"textures":[
		{
			"sampler":0,
			"source":0
		}
	],
	"images":[
		{
			"bufferView":4,
			"mimeType":"image/jpeg",
			"name":"WrapReduced2"
		}
	],
	"accessors":[
		{
			"bufferView":0,
			"componentType":5126,
			"count":13436,
			"max":[
				-0.6810007691383362,
				0.4337487816810608,
				-0.2135230004787445
			],
			"min":[
				-0.9385362267494202,
				0.18933871388435364,
				-0.7284424304962158
			],
			"type":"VEC3"
		},
		{
			"bufferView":1,
			"componentType":5126,
			"count":13436,
			"type":"VEC3"
		},
		{
			"bufferView":2,
			"componentType":5126,
			"count":13436,
			"type":"VEC2"
		},
		{
			"bufferView":3,
			"componentType":5123,
			"count":13668,
			"type":"SCALAR"
		},
		{
			"bufferView":5,
			"componentType":5126,
			"count":348,
			"max":[
				-0.6810007691383362,
				0.4337487816810608,
				-0.21351711452007294
			],
			"min":[
				-0.9385362267494202,
				0.006794005632400513,
				-0.7284616827964783
			],
			"type":"VEC3"
		},
		{
			"bufferView":6,
			"componentType":5126,
			"count":348,
			"type":"VEC3"
		},
		{
			"bufferView":7,
			"componentType":5126,
			"count":348,
			"type":"VEC2"
		},
		{
			"bufferView":8,
			"componentType":5123,
			"count":1005,
			"type":"SCALAR"
		}
	],
	"bufferViews":[
		{
			"buffer":0,
			"byteLength":161232,
			"byteOffset":0,
			"target":34962
		},
		{
			"buffer":0,
			"byteLength":161232,
			"byteOffset":161232,
			"target":34962
		},
		{
			"buffer":0,
			"byteLength":107488,
			"byteOffset":322464,
			"target":34962
		},
		{
			"buffer":0,
			"byteLength":27336,
			"byteOffset":429952,
			"target":34963
		},
		{
			"buffer":0,
			"byteLength":533019,
			"byteOffset":457288
		},
		{
			"buffer":0,
			"byteLength":4176,
			"byteOffset":990308,
			"target":34962
		},
		{
			"buffer":0,
			"byteLength":4176,
			"byteOffset":994484,
			"target":34962
		},
		{
			"buffer":0,
			"byteLength":2784,
			"byteOffset":998660,
			"target":34962
		},
		{
			"buffer":0,
			"byteLength":2010,
			"byteOffset":1001444,
			"target":34963
		}
	],
	"samplers":[
		{
			"magFilter":9729,
			"minFilter":9987,
			"wrapS":33071,
			"wrapT":33071
		}
	],
	"buffers":[
		{
			"byteLength":1003456,
			"uri":"data:application/octet-stream;base64,"
		}
	]
}
