{
	"asset":{
		"generator":"Khronos glTF Blender I/O v4.2.70",
		"version":"2.0"
	},
	"scene":0,
	"scenes":[
		{
			"name":"Scene",
			"nodes":[
				0
			]
		}
	],
	"nodes":[
		{
			"mesh":0,
			"name":"Plane",
			"rotation":[
				0,
				0.14319562911987305,
				0,
				0.9896944165229797
			],
			"scale":[
				2,
				1,
				1
			],
			"translation":[
				0.5699983835220337,
				0,
				-0.03166657313704491
			]
		}
	],
	"materials":[
		{
			"doubleSided":true,
			"name":"Material.001",
			"pbrMetallicRoughness":{
				"baseColorTexture":{
					"index":0
				},
				"metallicFactor":0
			}
		},
		{
			"doubleSided":true,
			"name":"Material",
			"pbrMetallicRoughness":{
				"baseColorFactor":[
					0.800000011920929,
					0.800000011920929,
					0.800000011920929,
					1
				],
				"metallicFactor":0,
				"roughnessFactor":0.5
			}
		}
	],
	"meshes":[
		{
			"name":"Plane",
			"primitives":[
				{
					"attributes":{
						"POSITION":0,
						"NORMAL":1,
						"TEXCOORD_0":2
					},
					"indices":3,
					"material":0
				},
				{
					"attributes":{
						"POSITION":4,
						"NORMAL":5,
						"TEXCOORD_0":6
					},
					"indices":7,
					"material":1
				}
			]
		}
	],
	"textures":[
		{
			"sampler":0,
			"source":0
		}
	],
	"images":[
		{
			"bufferView":4,
			"mimeType":"image/jpeg",
			"name":"WrapReduced2"
		}
	],
	"accessors":[
		{
			"bufferView":0,
			"componentType":5126,
			"count":16937,
			"max":[
				-0.10560666024684906,
				0.6866088509559631,
				0.12226628512144089
			],
			"min":[
				-0.4477936327457428,
				0.3893783688545227,
				-0.40802228450775146
			],
			"type":"VEC3"
		},
		{
			"bufferView":1,
			"componentType":5126,
			"count":16937,
			"type":"VEC3"
		},
		{
			"bufferView":2,
			"componentType":5126,
			"count":16937,
			"type":"VEC2"
		},
		{
			"bufferView":3,
			"componentType":5123,
			"count":17487,
			"type":"SCALAR"
		},
		{
			"bufferView":5,
			"componentType":5126,
			"count":484,
			"max":[
				-0.10560666024684906,
				0.6866088509559631,
				0.12227017432451248
			],
			"min":[
				-0.44779983162879944,
				0.006794005632400513,
				-0.40802228450775146
			],
			"type":"VEC3"
		},
		{
			"bufferView":6,
			"componentType":5126,
			"count":484,
			"type":"VEC3"
		},
		{
			"bufferView":7,
			"componentType":5126,
			"count":484,
			"type":"VEC2"
		},
		{
			"bufferView":8,
			"componentType":5123,
			"count":1416,
			"type":"SCALAR"
		}
	],
	"bufferViews":[
		{
			"buffer":0,
			"byteLength":203244,
			"byteOffset":0,
			"target":34962
		},
		{
			"buffer":0,
			"byteLength":203244,
			"byteOffset":203244,
			"target":34962
		},
		{
			"buffer":0,
			"byteLength":135496,
			"byteOffset":406488,
			"target":34962
		},
		{
			"buffer":0,
			"byteLength":34974,
			"byteOffset":541984,
			"target":34963
		},
		{
			"buffer":0,
			"byteLength":533019,
			"byteOffset":576960
		},
		{
			"buffer":0,
			"byteLength":5808,
			"byteOffset":1109980,
			"target":34962
		},
		{
			"buffer":0,
			"byteLength":5808,
			"byteOffset":1115788,
			"target":34962
		},
		{
			"buffer":0,
			"byteLength":3872,
			"byteOffset":1121596,
			"target":34962
		},
		{
			"buffer":0,
			"byteLength":2832,
			"byteOffset":1125468,
			"target":34963
		}
	],
	"samplers":[
		{
			"magFilter":9729,
			"minFilter":9987,
			"wrapS":33071,
			"wrapT":33071
		}
	],
	"buffers":[
		{
			"byteLength":1128300,
			"uri":"data:application/octet-stream;base64,"
		}
	]
}
