{
	"asset":{
		"generator":"Khronos glTF Blender I/O v4.2.70",
		"version":"2.0"
	},
	"scene":0,
	"scenes":[
		{
			"name":"Scene",
			"nodes":[
				0
			]
		}
	],
	"nodes":[
		{
			"mesh":0,
			"name":"Plane",
			"rotation":[
				0,
				0.14319562911987305,
				0,
				0.9896944165229797
			],
			"scale":[
				2,
				1,
				1
			],
			"translation":[
				0.5699983835220337,
				0,
				-0.03166657313704491
			]
		}
	],
	"materials":[
		{
			"doubleSided":true,
			"name":"Material.001",
			"pbrMetallicRoughness":{
				"baseColorTexture":{
					"index":0
				},
				"metallicFactor":0
			}
		},
		{
			"doubleSided":true,
			"name":"Material",
			"pbrMetallicRoughness":{
				"baseColorFactor":[
					0.800000011920929,
					0.800000011920929,
					0.800000011920929,
					1
				],
				"metallicFactor":0,
				"roughnessFactor":0.5
			}
		}
	],
	"meshes":[
		{
			"name":"Plane",
			"primitives":[
				{
					"attributes":{
						"POSITION":0,
						"NORMAL":1,
						"TEXCOORD_0":2
					},
					"indices":3,
					"material":0
				},
				{
					"attributes":{
						"POSITION":4,
						"NORMAL":5,
						"TEXCOORD_0":6
					},
					"indices":7,
					"material":1
				}
			]
		}
	],
	"textures":[
		{
			"sampler":0,
			"source":0
		}
	],
	"images":[
		{
			"bufferView":4,
			"mimeType":"image/jpeg",
			"name":"WrapReduced2"
		}
	],
	"accessors":[
		{
			"bufferView":0,
			"componentType":5126,
			"count":12649,
			"max":[
				0.4981721043586731,
				1.2442487478256226,
				0.10216942429542542
			],
			"min":[
				0.18209035694599152,
				0.8383422493934631,
				-0.3139118552207947
			],
			"type":"VEC3"
		},
		{
			"bufferView":1,
			"componentType":5126,
			"count":12649,
			"type":"VEC3"
		},
		{
			"bufferView":2,
			"componentType":5126,
			"count":12649,
			"type":"VEC2"
		},
		{
			"bufferView":3,
			"componentType":5123,
			"count":12945,
			"type":"SCALAR"
		},
		{
			"bufferView":5,
			"componentType":5126,
			"count":369,
			"max":[
				0.4981721043586731,
				1.2442487478256226,
				0.10216942429542542
			],
			"min":[
				0.18209035694599152,
				0.006794005632400513,
				-0.31391552090644836
			],
			"type":"VEC3"
		},
		{
			"bufferView":6,
			"componentType":5126,
			"count":369,
			"type":"VEC3"
		},
		{
			"bufferView":7,
			"componentType":5126,
			"count":369,
			"type":"VEC2"
		},
		{
			"bufferView":8,
			"componentType":5123,
			"count":1071,
			"type":"SCALAR"
		}
	],
	"bufferViews":[
		{
			"buffer":0,
			"byteLength":151788,
			"byteOffset":0,
			"target":34962
		},
		{
			"buffer":0,
			"byteLength":151788,
			"byteOffset":151788,
			"target":34962
		},
		{
			"buffer":0,
			"byteLength":101192,
			"byteOffset":303576,
			"target":34962
		},
		{
			"buffer":0,
			"byteLength":25890,
			"byteOffset":404768,
			"target":34963
		},
		{
			"buffer":0,
			"byteLength":533019,
			"byteOffset":430660
		},
		{
			"buffer":0,
			"byteLength":4428,
			"byteOffset":963680,
			"target":34962
		},
		{
			"buffer":0,
			"byteLength":4428,
			"byteOffset":968108,
			"target":34962
		},
		{
			"buffer":0,
			"byteLength":2952,
			"byteOffset":972536,
			"target":34962
		},
		{
			"buffer":0,
			"byteLength":2142,
			"byteOffset":975488,
			"target":34963
		}
	],
	"samplers":[
		{
			"magFilter":9729,
			"minFilter":9987,
			"wrapS":33071,
			"wrapT":33071
		}
	],
	"buffers":[
		{
			"byteLength":977632,
			"uri":"data:application/octet-stream;base64,"
		}
	]
}
