{
	"asset":{
		"generator":"Khronos glTF Blender I/O v4.2.70",
		"version":"2.0"
	},
	"scene":0,
	"scenes":[
		{
			"name":"Scene",
			"nodes":[
				0
			]
		}
	],
	"nodes":[
		{
			"mesh":0,
			"name":"Plane",
			"rotation":[
				0,
				0.14319562911987305,
				0,
				0.9896944165229797
			],
			"scale":[
				2,
				1,
				1
			],
			"translation":[
				0.5699983835220337,
				0,
				-0.03166657313704491
			]
		}
	],
	"materials":[
		{
			"doubleSided":true,
			"name":"Material.001",
			"pbrMetallicRoughness":{
				"baseColorTexture":{
					"index":0
				},
				"metallicFactor":0
			}
		},
		{
			"doubleSided":true,
			"name":"Material",
			"pbrMetallicRoughness":{
				"baseColorFactor":[
					0.800000011920929,
					0.800000011920929,
					0.800000011920929,
					1
				],
				"metallicFactor":0,
				"roughnessFactor":0.5
			}
		}
	],
	"meshes":[
		{
			"name":"Plane",
			"primitives":[
				{
					"attributes":{
						"POSITION":0,
						"NORMAL":1,
						"TEXCOORD_0":2
					},
					"indices":3,
					"material":0
				},
				{
					"attributes":{
						"POSITION":4,
						"NORMAL":5,
						"TEXCOORD_0":6
					},
					"indices":7,
					"material":1
				}
			]
		}
	],
	"textures":[
		{
			"sampler":0,
			"source":0
		}
	],
	"images":[
		{
			"bufferView":4,
			"mimeType":"image/jpeg",
			"name":"WrapReduced2"
		}
	],
	"accessors":[
		{
			"bufferView":0,
			"componentType":5126,
			"count":18096,
			"max":[
				-0.39330369234085083,
				0.6768130660057068,
				-0.03929984197020531
			],
			"min":[
				-0.7348759770393372,
				0.23595330119132996,
				-0.5780861377716064
			],
			"type":"VEC3"
		},
		{
			"bufferView":1,
			"componentType":5126,
			"count":18096,
			"type":"VEC3"
		},
		{
			"bufferView":2,
			"componentType":5126,
			"count":18096,
			"type":"VEC2"
		},
		{
			"bufferView":3,
			"componentType":5123,
			"count":18612,
			"type":"SCALAR"
		},
		{
			"bufferView":5,
			"componentType":5126,
			"count":477,
			"max":[
				-0.39330369234085083,
				0.6768130660057068,
				-0.03925771266222
			],
			"min":[
				-0.7348768711090088,
				0.006794005632400513,
				-0.5780861377716064
			],
			"type":"VEC3"
		},
		{
			"bufferView":6,
			"componentType":5126,
			"count":477,
			"type":"VEC3"
		},
		{
			"bufferView":7,
			"componentType":5126,
			"count":477,
			"type":"VEC2"
		},
		{
			"bufferView":8,
			"componentType":5123,
			"count":1401,
			"type":"SCALAR"
		}
	],
	"bufferViews":[
		{
			"buffer":0,
			"byteLength":217152,
			"byteOffset":0,
			"target":34962
		},
		{
			"buffer":0,
			"byteLength":217152,
			"byteOffset":217152,
			"target":34962
		},
		{
			"buffer":0,
			"byteLength":144768,
			"byteOffset":434304,
			"target":34962
		},
		{
			"buffer":0,
			"byteLength":37224,
			"byteOffset":579072,
			"target":34963
		},
		{
			"buffer":0,
			"byteLength":533019,
			"byteOffset":616296
		},
		{
			"buffer":0,
			"byteLength":5724,
			"byteOffset":1149316,
			"target":34962
		},
		{
			"buffer":0,
			"byteLength":5724,
			"byteOffset":1155040,
			"target":34962
		},
		{
			"buffer":0,
			"byteLength":3816,
			"byteOffset":1160764,
			"target":34962
		},
		{
			"buffer":0,
			"byteLength":2802,
			"byteOffset":1164580,
			"target":34963
		}
	],
	"samplers":[
		{
			"magFilter":9729,
			"minFilter":9987,
			"wrapS":33071,
			"wrapT":33071
		}
	],
	"buffers":[
		{
			"byteLength":1167384,
			"uri":"data:application/octet-stream;base64,"
		}
	]
}
