{
	"asset":{
		"generator":"Khronos glTF Blender I/O v4.2.70",
		"version":"2.0"
	},
	"scene":0,
	"scenes":[
		{
			"name":"Scene",
			"nodes":[
				0
			]
		}
	],
	"nodes":[
		{
			"mesh":0,
			"name":"Plane",
			"rotation":[
				0,
				0.14319562911987305,
				0,
				0.9896944165229797
			],
			"scale":[
				2,
				1,
				1
			],
			"translation":[
				0.5699983835220337,
				0,
				-0.03166657313704491
			]
		}
	],
	"materials":[
		{
			"doubleSided":true,
			"name":"Material.001",
			"pbrMetallicRoughness":{
				"baseColorTexture":{
					"index":0
				},
				"metallicFactor":0
			}
		},
		{
			"doubleSided":true,
			"name":"Material",
			"pbrMetallicRoughness":{
				"baseColorFactor":[
					0.800000011920929,
					0.800000011920929,
					0.800000011920929,
					1
				],
				"metallicFactor":0,
				"roughnessFactor":0.5
			}
		}
	],
	"meshes":[
		{
			"name":"Plane",
			"primitives":[
				{
					"attributes":{
						"POSITION":0,
						"NORMAL":1,
						"TEXCOORD_0":2
					},
					"indices":3,
					"material":0
				},
				{
					"attributes":{
						"POSITION":4,
						"NORMAL":5,
						"TEXCOORD_0":6
					},
					"indices":7,
					"material":1
				}
			]
		}
	],
	"textures":[
		{
			"sampler":0,
			"source":0
		}
	],
	"images":[
		{
			"bufferView":4,
			"mimeType":"image/jpeg",
			"name":"WrapReduced2"
		}
	],
	"accessors":[
		{
			"bufferView":0,
			"componentType":5126,
			"count":17380,
			"max":[
				0.21844691038131714,
				0.953859806060791,
				-0.06789448857307434
			],
			"min":[
				-0.10560666024684906,
				0.5370784997940063,
				-0.5586029291152954
			],
			"type":"VEC3"
		},
		{
			"bufferView":1,
			"componentType":5126,
			"count":17380,
			"type":"VEC3"
		},
		{
			"bufferView":2,
			"componentType":5126,
			"count":17380,
			"type":"VEC2"
		},
		{
			"bufferView":3,
			"componentType":5123,
			"count":17760,
			"type":"SCALAR"
		},
		{
			"bufferView":5,
			"componentType":5126,
			"count":425,
			"max":[
				0.21844744682312012,
				0.953859806060791,
				-0.06789448857307434
			],
			"min":[
				-0.10560666024684906,
				0.006794005632400513,
				-0.5586223006248474
			],
			"type":"VEC3"
		},
		{
			"bufferView":6,
			"componentType":5126,
			"count":425,
			"type":"VEC3"
		},
		{
			"bufferView":7,
			"componentType":5126,
			"count":425,
			"type":"VEC2"
		},
		{
			"bufferView":8,
			"componentType":5123,
			"count":1236,
			"type":"SCALAR"
		}
	],
	"bufferViews":[
		{
			"buffer":0,
			"byteLength":208560,
			"byteOffset":0,
			"target":34962
		},
		{
			"buffer":0,
			"byteLength":208560,
			"byteOffset":208560,
			"target":34962
		},
		{
			"buffer":0,
			"byteLength":139040,
			"byteOffset":417120,
			"target":34962
		},
		{
			"buffer":0,
			"byteLength":35520,
			"byteOffset":556160,
			"target":34963
		},
		{
			"buffer":0,
			"byteLength":533019,
			"byteOffset":591680
		},
		{
			"buffer":0,
			"byteLength":5100,
			"byteOffset":1124700,
			"target":34962
		},
		{
			"buffer":0,
			"byteLength":5100,
			"byteOffset":1129800,
			"target":34962
		},
		{
			"buffer":0,
			"byteLength":3400,
			"byteOffset":1134900,
			"target":34962
		},
		{
			"buffer":0,
			"byteLength":2472,
			"byteOffset":1138300,
			"target":34963
		}
	],
	"samplers":[
		{
			"magFilter":9729,
			"minFilter":9987,
			"wrapS":33071,
			"wrapT":33071
		}
	],
	"buffers":[
		{
			"byteLength":1140772,
			"uri":"data:application/octet-stream;base64,"
		}
	]
}
