{
	"asset":{
		"generator":"Khronos glTF Blender I/O v4.2.70",
		"version":"2.0"
	},
	"scene":0,
	"scenes":[
		{
			"name":"Scene",
			"nodes":[
				0
			]
		}
	],
	"nodes":[
		{
			"mesh":0,
			"name":"Plane",
			"rotation":[
				0,
				0.14319562911987305,
				0,
				0.9896944165229797
			],
			"scale":[
				2,
				1,
				1
			],
			"translation":[
				0.5699983835220337,
				0,
				-0.03166657313704491
			]
		}
	],
	"materials":[
		{
			"doubleSided":true,
			"name":"Material.001",
			"pbrMetallicRoughness":{
				"baseColorTexture":{
					"index":0
				},
				"metallicFactor":0
			}
		},
		{
			"doubleSided":true,
			"name":"Material",
			"pbrMetallicRoughness":{
				"baseColorFactor":[
					0.800000011920929,
					0.800000011920929,
					0.800000011920929,
					1
				],
				"metallicFactor":0,
				"roughnessFactor":0.5
			}
		}
	],
	"meshes":[
		{
			"name":"Plane",
			"primitives":[
				{
					"attributes":{
						"POSITION":0,
						"NORMAL":1,
						"TEXCOORD_0":2
					},
					"indices":3,
					"material":0
				},
				{
					"attributes":{
						"POSITION":4,
						"NORMAL":5,
						"TEXCOORD_0":6
					},
					"indices":7,
					"material":1
				}
			]
		}
	],
	"textures":[
		{
			"sampler":0,
			"source":0
		}
	],
	"images":[
		{
			"bufferView":4,
			"mimeType":"image/jpeg",
			"name":"WrapReduced2"
		}
	],
	"accessors":[
		{
			"bufferView":0,
			"componentType":5126,
			"count":15783,
			"max":[
				-0.05822169408202171,
				0.9607773423194885,
				-0.23795834183692932
			],
			"min":[
				-0.39330369234085083,
				0.5347607731819153,
				-0.7406101226806641
			],
			"type":"VEC3"
		},
		{
			"bufferView":1,
			"componentType":5126,
			"count":15783,
			"type":"VEC3"
		},
		{
			"bufferView":2,
			"componentType":5126,
			"count":15783,
			"type":"VEC2"
		},
		{
			"bufferView":3,
			"componentType":5123,
			"count":16155,
			"type":"SCALAR"
		},
		{
			"bufferView":5,
			"componentType":5126,
			"count":456,
			"max":[
				-0.0582188218832016,
				0.9607773423194885,
				-0.23795834183692932
			],
			"min":[
				-0.39330369234085083,
				0.006794005632400513,
				-0.7406333088874817
			],
			"type":"VEC3"
		},
		{
			"bufferView":6,
			"componentType":5126,
			"count":456,
			"type":"VEC3"
		},
		{
			"bufferView":7,
			"componentType":5126,
			"count":456,
			"type":"VEC2"
		},
		{
			"bufferView":8,
			"componentType":5123,
			"count":1332,
			"type":"SCALAR"
		}
	],
	"bufferViews":[
		{
			"buffer":0,
			"byteLength":189396,
			"byteOffset":0,
			"target":34962
		},
		{
			"buffer":0,
			"byteLength":189396,
			"byteOffset":189396,
			"target":34962
		},
		{
			"buffer":0,
			"byteLength":126264,
			"byteOffset":378792,
			"target":34962
		},
		{
			"buffer":0,
			"byteLength":32310,
			"byteOffset":505056,
			"target":34963
		},
		{
			"buffer":0,
			"byteLength":533019,
			"byteOffset":537368
		},
		{
			"buffer":0,
			"byteLength":5472,
			"byteOffset":1070388,
			"target":34962
		},
		{
			"buffer":0,
			"byteLength":5472,
			"byteOffset":1075860,
			"target":34962
		},
		{
			"buffer":0,
			"byteLength":3648,
			"byteOffset":1081332,
			"target":34962
		},
		{
			"buffer":0,
			"byteLength":2664,
			"byteOffset":1084980,
			"target":34963
		}
	],
	"samplers":[
		{
			"magFilter":9729,
			"minFilter":9987,
			"wrapS":33071,
			"wrapT":33071
		}
	],
	"buffers":[
		{
			"byteLength":1087644,
			"uri":"data:application/octet-stream;base64,"
		}
	]
}
