{
	"asset":{
		"generator":"Khronos glTF Blender I/O v4.2.70",
		"version":"2.0"
	},
	"scene":0,
	"scenes":[
		{
			"name":"Scene",
			"nodes":[
				0
			]
		}
	],
	"nodes":[
		{
			"mesh":0,
			"name":"Plane",
			"rotation":[
				0,
				0.14319562911987305,
				0,
				0.9896944165229797
			],
			"scale":[
				2,
				1,
				1
			],
			"translation":[
				0.5699983835220337,
				0,
				-0.03166657313704491
			]
		}
	],
	"materials":[
		{
			"doubleSided":true,
			"name":"Material.001",
			"pbrMetallicRoughness":{
				"baseColorTexture":{
					"index":0
				},
				"metallicFactor":0
			}
		},
		{
			"doubleSided":true,
			"name":"Material",
			"pbrMetallicRoughness":{
				"baseColorFactor":[
					0.800000011920929,
					0.800000011920929,
					0.800000011920929,
					1
				],
				"metallicFactor":0,
				"roughnessFactor":0.5
			}
		}
	],
	"meshes":[
		{
			"name":"Plane",
			"primitives":[
				{
					"attributes":{
						"POSITION":0,
						"NORMAL":1,
						"TEXCOORD_0":2
					},
					"indices":3,
					"material":0
				},
				{
					"attributes":{
						"POSITION":4,
						"NORMAL":5,
						"TEXCOORD_0":6
					},
					"indices":7,
					"material":1
				}
			]
		}
	],
	"textures":[
		{
			"sampler":0,
			"source":0
		}
	],
	"images":[
		{
			"bufferView":4,
			"mimeType":"image/jpeg",
			"name":"WrapReduced2"
		}
	],
	"accessors":[
		{
			"bufferView":0,
			"componentType":5126,
			"count":23407,
			"max":[
				0.4697873592376709,
				1.2184566259384155,
				0.42803266644477844
			],
			"min":[
				0.13489823043346405,
				0.7806611657142639,
				-0.06789448857307434
			],
			"type":"VEC3"
		},
		{
			"bufferView":1,
			"componentType":5126,
			"count":23407,
			"type":"VEC3"
		},
		{
			"bufferView":2,
			"componentType":5126,
			"count":23407,
			"type":"VEC2"
		},
		{
			"bufferView":3,
			"componentType":5123,
			"count":23865,
			"type":"SCALAR"
		},
		{
			"bufferView":5,
			"componentType":5126,
			"count":490,
			"max":[
				0.4697873592376709,
				1.2184566259384155,
				0.42803382873535156
			],
			"min":[
				0.13489151000976562,
				0.006794005632400513,
				-0.06789448857307434
			],
			"type":"VEC3"
		},
		{
			"bufferView":6,
			"componentType":5126,
			"count":490,
			"type":"VEC3"
		},
		{
			"bufferView":7,
			"componentType":5126,
			"count":490,
			"type":"VEC2"
		},
		{
			"bufferView":8,
			"componentType":5123,
			"count":1434,
			"type":"SCALAR"
		}
	],
	"bufferViews":[
		{
			"buffer":0,
			"byteLength":280884,
			"byteOffset":0,
			"target":34962
		},
		{
			"buffer":0,
			"byteLength":280884,
			"byteOffset":280884,
			"target":34962
		},
		{
			"buffer":0,
			"byteLength":187256,
			"byteOffset":561768,
			"target":34962
		},
		{
			"buffer":0,
			"byteLength":47730,
			"byteOffset":749024,
			"target":34963
		},
		{
			"buffer":0,
			"byteLength":533019,
			"byteOffset":796756
		},
		{
			"buffer":0,
			"byteLength":5880,
			"byteOffset":1329776,
			"target":34962
		},
		{
			"buffer":0,
			"byteLength":5880,
			"byteOffset":1335656,
			"target":34962
		},
		{
			"buffer":0,
			"byteLength":3920,
			"byteOffset":1341536,
			"target":34962
		},
		{
			"buffer":0,
			"byteLength":2868,
			"byteOffset":1345456,
			"target":34963
		}
	],
	"samplers":[
		{
			"magFilter":9729,
			"minFilter":9987,
			"wrapS":33071,
			"wrapT":33071
		}
	],
	"buffers":[
		{
			"byteLength":1348324,
			"uri":"data:application/octet-stream;base64,"
		}
	]
}
