{
	"asset":{
		"generator":"Khronos glTF Blender I/O v4.2.70",
		"version":"2.0"
	},
	"scene":0,
	"scenes":[
		{
			"name":"Scene",
			"nodes":[
				0
			]
		}
	],
	"nodes":[
		{
			"mesh":0,
			"name":"Plane",
			"rotation":[
				0,
				0.14319562911987305,
				0,
				0.9896944165229797
			],
			"scale":[
				2,
				1,
				1
			],
			"translation":[
				0.5699983835220337,
				0,
				-0.03166657313704491
			]
		}
	],
	"materials":[
		{
			"doubleSided":true,
			"name":"Material.001",
			"pbrMetallicRoughness":{
				"baseColorTexture":{
					"index":0
				},
				"metallicFactor":0
			}
		},
		{
			"doubleSided":true,
			"name":"Material",
			"pbrMetallicRoughness":{
				"baseColorFactor":[
					0.800000011920929,
					0.800000011920929,
					0.800000011920929,
					1
				],
				"metallicFactor":0,
				"roughnessFactor":0.5
			}
		}
	],
	"meshes":[
		{
			"name":"Plane",
			"primitives":[
				{
					"attributes":{
						"POSITION":0,
						"NORMAL":1,
						"TEXCOORD_0":2
					},
					"indices":3,
					"material":0
				},
				{
					"attributes":{
						"POSITION":4,
						"NORMAL":5,
						"TEXCOORD_0":6
					},
					"indices":7,
					"material":1
				}
			]
		}
	],
	"textures":[
		{
			"sampler":0,
			"source":0
		}
	],
	"images":[
		{
			"bufferView":4,
			"mimeType":"image/jpeg",
			"name":"WrapReduced2"
		}
	],
	"accessors":[
		{
			"bufferView":0,
			"componentType":5126,
			"count":14410,
			"max":[
				0.7574842572212219,
				1.3372142314910889,
				0.6046620607376099
			],
			"min":[
				0.4216310679912567,
				1.0660151243209839,
				0.10216936469078064
			],
			"type":"VEC3"
		},
		{
			"bufferView":1,
			"componentType":5126,
			"count":14410,
			"type":"VEC3"
		},
		{
			"bufferView":2,
			"componentType":5126,
			"count":14410,
			"type":"VEC2"
		},
		{
			"bufferView":3,
			"componentType":5123,
			"count":14754,
			"type":"SCALAR"
		},
		{
			"bufferView":5,
			"componentType":5126,
			"count":396,
			"max":[
				0.7574842572212219,
				1.3372142314910889,
				0.6046633720397949
			],
			"min":[
				0.4216308891773224,
				0.006794005632400513,
				0.10216936469078064
			],
			"type":"VEC3"
		},
		{
			"bufferView":6,
			"componentType":5126,
			"count":396,
			"type":"VEC3"
		},
		{
			"bufferView":7,
			"componentType":5126,
			"count":396,
			"type":"VEC2"
		},
		{
			"bufferView":8,
			"componentType":5123,
			"count":1158,
			"type":"SCALAR"
		}
	],
	"bufferViews":[
		{
			"buffer":0,
			"byteLength":172920,
			"byteOffset":0,
			"target":34962
		},
		{
			"buffer":0,
			"byteLength":172920,
			"byteOffset":172920,
			"target":34962
		},
		{
			"buffer":0,
			"byteLength":115280,
			"byteOffset":345840,
			"target":34962
		},
		{
			"buffer":0,
			"byteLength":29508,
			"byteOffset":461120,
			"target":34963
		},
		{
			"buffer":0,
			"byteLength":533019,
			"byteOffset":490628
		},
		{
			"buffer":0,
			"byteLength":4752,
			"byteOffset":1023648,
			"target":34962
		},
		{
			"buffer":0,
			"byteLength":4752,
			"byteOffset":1028400,
			"target":34962
		},
		{
			"buffer":0,
			"byteLength":3168,
			"byteOffset":1033152,
			"target":34962
		},
		{
			"buffer":0,
			"byteLength":2316,
			"byteOffset":1036320,
			"target":34963
		}
	],
	"samplers":[
		{
			"magFilter":9729,
			"minFilter":9987,
			"wrapS":33071,
			"wrapT":33071
		}
	],
	"buffers":[
		{
			"byteLength":1038636,
			"uri":"data:application/octet-stream;base64,"
		}
	]
}
