{
	"asset":{
		"generator":"Khronos glTF Blender I/O v4.2.70",
		"version":"2.0"
	},
	"scene":0,
	"scenes":[
		{
			"name":"Scene",
			"nodes":[
				0
			]
		}
	],
	"nodes":[
		{
			"mesh":0,
			"name":"Plane",
			"rotation":[
				0,
				0.14319562911987305,
				0,
				0.9896944165229797
			],
			"scale":[
				2,
				1,
				1
			],
			"translation":[
				0.5699983835220337,
				0,
				-0.03166657313704491
			]
		}
	],
	"materials":[
		{
			"doubleSided":true,
			"name":"Material.001",
			"pbrMetallicRoughness":{
				"baseColorTexture":{
					"index":0
				},
				"metallicFactor":0
			}
		},
		{
			"doubleSided":true,
			"name":"Material",
			"pbrMetallicRoughness":{
				"baseColorFactor":[
					0.800000011920929,
					0.800000011920929,
					0.800000011920929,
					1
				],
				"metallicFactor":0,
				"roughnessFactor":0.5
			}
		}
	],
	"meshes":[
		{
			"name":"Plane",
			"primitives":[
				{
					"attributes":{
						"POSITION":0,
						"NORMAL":1,
						"TEXCOORD_0":2
					},
					"indices":3,
					"material":0
				},
				{
					"attributes":{
						"POSITION":4,
						"NORMAL":5,
						"TEXCOORD_0":6
					},
					"indices":7,
					"material":1
				}
			]
		}
	],
	"textures":[
		{
			"sampler":0,
			"source":0
		}
	],
	"images":[
		{
			"bufferView":4,
			"mimeType":"image/jpeg",
			"name":"WrapReduced2"
		}
	],
	"accessors":[
		{
			"bufferView":0,
			"componentType":5126,
			"count":5945,
			"max":[
				0.9899762868881226,
				1.4603447914123535,
				0.7780370116233826
			],
			"min":[
				0.7083579897880554,
				1.2596983909606934,
				0.2722332775592804
			],
			"type":"VEC3"
		},
		{
			"bufferView":1,
			"componentType":5126,
			"count":5945,
			"type":"VEC3"
		},
		{
			"bufferView":2,
			"componentType":5126,
			"count":5945,
			"type":"VEC2"
		},
		{
			"bufferView":3,
			"componentType":5123,
			"count":6117,
			"type":"SCALAR"
		},
		{
			"bufferView":5,
			"componentType":5126,
			"count":239,
			"max":[
				0.9900689125061035,
				1.4603447914123535,
				0.7781965136528015
			],
			"min":[
				0.7083578109741211,
				0.006794005632400513,
				0.2722332775592804
			],
			"type":"VEC3"
		},
		{
			"bufferView":6,
			"componentType":5126,
			"count":239,
			"type":"VEC3"
		},
		{
			"bufferView":7,
			"componentType":5126,
			"count":239,
			"type":"VEC2"
		},
		{
			"bufferView":8,
			"componentType":5123,
			"count":687,
			"type":"SCALAR"
		}
	],
	"bufferViews":[
		{
			"buffer":0,
			"byteLength":71340,
			"byteOffset":0,
			"target":34962
		},
		{
			"buffer":0,
			"byteLength":71340,
			"byteOffset":71340,
			"target":34962
		},
		{
			"buffer":0,
			"byteLength":47560,
			"byteOffset":142680,
			"target":34962
		},
		{
			"buffer":0,
			"byteLength":12234,
			"byteOffset":190240,
			"target":34963
		},
		{
			"buffer":0,
			"byteLength":533019,
			"byteOffset":202476
		},
		{
			"buffer":0,
			"byteLength":2868,
			"byteOffset":735496,
			"target":34962
		},
		{
			"buffer":0,
			"byteLength":2868,
			"byteOffset":738364,
			"target":34962
		},
		{
			"buffer":0,
			"byteLength":1912,
			"byteOffset":741232,
			"target":34962
		},
		{
			"buffer":0,
			"byteLength":1374,
			"byteOffset":743144,
			"target":34963
		}
	],
	"samplers":[
		{
			"magFilter":9729,
			"minFilter":9987,
			"wrapS":33071,
			"wrapT":33071
		}
	],
	"buffers":[
		{
			"byteLength":744520,
			"uri":"data:application/octet-stream;base64,"
		}
	]
}
