{
	"asset":{
		"generator":"Khronos glTF Blender I/O v4.2.70",
		"version":"2.0"
	},
	"scene":0,
	"scenes":[
		{
			"name":"Scene",
			"nodes":[
				0
			]
		}
	],
	"nodes":[
		{
			"mesh":0,
			"name":"Plane",
			"rotation":[
				0,
				0.14319562911987305,
				0,
				0.9896944165229797
			],
			"scale":[
				2,
				1,
				1
			],
			"translation":[
				0.5699983835220337,
				0,
				-0.03166657313704491
			]
		}
	],
	"materials":[
		{
			"doubleSided":true,
			"name":"Material.001",
			"pbrMetallicRoughness":{
				"baseColorTexture":{
					"index":0
				},
				"metallicFactor":0
			}
		},
		{
			"doubleSided":true,
			"name":"Material",
			"pbrMetallicRoughness":{
				"baseColorFactor":[
					0.800000011920929,
					0.800000011920929,
					0.800000011920929,
					1
				],
				"metallicFactor":0,
				"roughnessFactor":0.5
			}
		}
	],
	"meshes":[
		{
			"name":"Plane",
			"primitives":[
				{
					"attributes":{
						"POSITION":0,
						"NORMAL":1,
						"TEXCOORD_0":2
					},
					"indices":3,
					"material":0
				},
				{
					"attributes":{
						"POSITION":4,
						"NORMAL":5,
						"TEXCOORD_0":6
					},
					"indices":7,
					"material":1
				}
			]
		}
	],
	"textures":[
		{
			"sampler":0,
			"source":0
		}
	],
	"images":[
		{
			"bufferView":4,
			"mimeType":"image/jpeg",
			"name":"WrapReduced2"
		}
	],
	"accessors":[
		{
			"bufferView":0,
			"componentType":5126,
			"count":24936,
			"max":[
				-0.3441537320613861,
				0.9384397864341736,
				-0.4080222547054291
			],
			"min":[
				-0.6810007095336914,
				0.34738823771476746,
				-0.9857290983200073
			],
			"type":"VEC3"
		},
		{
			"bufferView":1,
			"componentType":5126,
			"count":24936,
			"type":"VEC3"
		},
		{
			"bufferView":2,
			"componentType":5126,
			"count":24936,
			"type":"VEC2"
		},
		{
			"bufferView":3,
			"componentType":5123,
			"count":25590,
			"type":"SCALAR"
		},
		{
			"bufferView":5,
			"componentType":5126,
			"count":526,
			"max":[
				-0.3441503047943115,
				0.9384397864341736,
				-0.4080222547054291
			],
			"min":[
				-0.6810007095336914,
				0.006794005632400513,
				-0.9857460856437683
			],
			"type":"VEC3"
		},
		{
			"bufferView":6,
			"componentType":5126,
			"count":526,
			"type":"VEC3"
		},
		{
			"bufferView":7,
			"componentType":5126,
			"count":526,
			"type":"VEC2"
		},
		{
			"bufferView":8,
			"componentType":5123,
			"count":1542,
			"type":"SCALAR"
		}
	],
	"bufferViews":[
		{
			"buffer":0,
			"byteLength":299232,
			"byteOffset":0,
			"target":34962
		},
		{
			"buffer":0,
			"byteLength":299232,
			"byteOffset":299232,
			"target":34962
		},
		{
			"buffer":0,
			"byteLength":199488,
			"byteOffset":598464,
			"target":34962
		},
		{
			"buffer":0,
			"byteLength":51180,
			"byteOffset":797952,
			"target":34963
		},
		{
			"buffer":0,
			"byteLength":533019,
			"byteOffset":849132
		},
		{
			"buffer":0,
			"byteLength":6312,
			"byteOffset":1382152,
			"target":34962
		},
		{
			"buffer":0,
			"byteLength":6312,
			"byteOffset":1388464,
			"target":34962
		},
		{
			"buffer":0,
			"byteLength":4208,
			"byteOffset":1394776,
			"target":34962
		},
		{
			"buffer":0,
			"byteLength":3084,
			"byteOffset":1398984,
			"target":34963
		}
	],
	"samplers":[
		{
			"magFilter":9729,
			"minFilter":9987,
			"wrapS":33071,
			"wrapT":33071
		}
	],
	"buffers":[
		{
			"byteLength":1402068,
			"uri":"data:application/octet-stream;base64,"
		}
	]
}
