{
	"asset":{
		"generator":"Khronos glTF Blender I/O v4.2.70",
		"version":"2.0"
	},
	"scene":0,
	"scenes":[
		{
			"name":"Scene",
			"nodes":[
				0
			]
		}
	],
	"nodes":[
		{
			"mesh":0,
			"name":"Plane",
			"rotation":[
				0,
				0.14319562911987305,
				0,
				0.9896944165229797
			],
			"scale":[
				2,
				1,
				1
			],
			"translation":[
				0.5699983835220337,
				0,
				-0.03166657313704491
			]
		}
	],
	"materials":[
		{
			"doubleSided":true,
			"name":"Material.001",
			"pbrMetallicRoughness":{
				"baseColorTexture":{
					"index":0
				},
				"metallicFactor":0
			}
		},
		{
			"doubleSided":true,
			"name":"Material",
			"pbrMetallicRoughness":{
				"baseColorFactor":[
					0.800000011920929,
					0.800000011920929,
					0.800000011920929,
					1
				],
				"metallicFactor":0,
				"roughnessFactor":0.5
			}
		}
	],
	"meshes":[
		{
			"name":"Plane",
			"primitives":[
				{
					"attributes":{
						"POSITION":0,
						"NORMAL":1,
						"TEXCOORD_0":2
					},
					"indices":3,
					"material":0
				},
				{
					"attributes":{
						"POSITION":4,
						"NORMAL":5,
						"TEXCOORD_0":6
					},
					"indices":7,
					"material":1
				}
			]
		}
	],
	"textures":[
		{
			"sampler":0,
			"source":0
		}
	],
	"images":[
		{
			"bufferView":4,
			"mimeType":"image/jpeg",
			"name":"WrapReduced2"
		}
	],
	"accessors":[
		{
			"bufferView":0,
			"componentType":5126,
			"count":5092,
			"max":[
				0.9841718077659607,
				1.4765079021453857,
				0.40623313188552856
			],
			"min":[
				0.7574843764305115,
				1.3154339790344238,
				0.12589503824710846
			],
			"type":"VEC3"
		},
		{
			"bufferView":1,
			"componentType":5126,
			"count":5092,
			"type":"VEC3"
		},
		{
			"bufferView":2,
			"componentType":5126,
			"count":5092,
			"type":"VEC2"
		},
		{
			"bufferView":3,
			"componentType":5123,
			"count":5256,
			"type":"SCALAR"
		},
		{
			"bufferView":5,
			"componentType":5126,
			"count":224,
			"max":[
				0.9841725826263428,
				1.4765079021453857,
				0.4062335789203644
			],
			"min":[
				0.7574843764305115,
				0.006794005632400513,
				0.12589503824710846
			],
			"type":"VEC3"
		},
		{
			"bufferView":6,
			"componentType":5126,
			"count":224,
			"type":"VEC3"
		},
		{
			"bufferView":7,
			"componentType":5126,
			"count":224,
			"type":"VEC2"
		},
		{
			"bufferView":8,
			"componentType":5123,
			"count":642,
			"type":"SCALAR"
		}
	],
	"bufferViews":[
		{
			"buffer":0,
			"byteLength":61104,
			"byteOffset":0,
			"target":34962
		},
		{
			"buffer":0,
			"byteLength":61104,
			"byteOffset":61104,
			"target":34962
		},
		{
			"buffer":0,
			"byteLength":40736,
			"byteOffset":122208,
			"target":34962
		},
		{
			"buffer":0,
			"byteLength":10512,
			"byteOffset":162944,
			"target":34963
		},
		{
			"buffer":0,
			"byteLength":533019,
			"byteOffset":173456
		},
		{
			"buffer":0,
			"byteLength":2688,
			"byteOffset":706476,
			"target":34962
		},
		{
			"buffer":0,
			"byteLength":2688,
			"byteOffset":709164,
			"target":34962
		},
		{
			"buffer":0,
			"byteLength":1792,
			"byteOffset":711852,
			"target":34962
		},
		{
			"buffer":0,
			"byteLength":1284,
			"byteOffset":713644,
			"target":34963
		}
	],
	"samplers":[
		{
			"magFilter":9729,
			"minFilter":9987,
			"wrapS":33071,
			"wrapT":33071
		}
	],
	"buffers":[
		{
			"byteLength":714928,
			"uri":"data:application/octet-stream;base64,"
		}
	]
}
