{
	"asset":{
		"generator":"Khronos glTF Blender I/O v4.2.70",
		"version":"2.0"
	},
	"scene":0,
	"scenes":[
		{
			"name":"Scene",
			"nodes":[
				0
			]
		}
	],
	"nodes":[
		{
			"mesh":0,
			"name":"Plane",
			"scale":[
				2,
				1,
				1
			]
		}
	],
	"materials":[
		{
			"doubleSided":true,
			"name":"Material.001",
			"pbrMetallicRoughness":{
				"baseColorTexture":{
					"index":0
				},
				"metallicFactor":0
			}
		}
	],
	"meshes":[
		{
			"name":"Plane",
			"primitives":[
				{
					"attributes":{
						"POSITION":0,
						"NORMAL":1,
						"TEXCOORD_0":2
					},
					"indices":3,
					"material":0
				}
			]
		}
	],
	"textures":[
		{
			"sampler":0,
			"source":0
		}
	],
	"images":[
		{
			"bufferView":4,
			"mimeType":"image/jpeg",
			"name":"warpreduce1"
		}
	],
	"accessors":[
		{
			"bufferView":0,
			"componentType":5126,
			"count":8901,
			"max":[
				0.4500000476837158,
				1.2579100131988525,
				-0.19999998807907104
			],
			"min":[
				0.14999999105930328,
				0.9775950908660889,
				-0.8000000715255737
			],
			"type":"VEC3"
		},
		{
			"bufferView":1,
			"componentType":5126,
			"count":8901,
			"type":"VEC3"
		},
		{
			"bufferView":2,
			"componentType":5126,
			"count":8901,
			"type":"VEC2"
		},
		{
			"bufferView":3,
			"componentType":5123,
			"count":9279,
			"type":"SCALAR"
		}
	],
	"bufferViews":[
		{
			"buffer":0,
			"byteLength":106812,
			"byteOffset":0,
			"target":34962
		},
		{
			"buffer":0,
			"byteLength":106812,
			"byteOffset":106812,
			"target":34962
		},
		{
			"buffer":0,
			"byteLength":71208,
			"byteOffset":213624,
			"target":34962
		},
		{
			"buffer":0,
			"byteLength":18558,
			"byteOffset":284832,
			"target":34963
		},
		{
			"buffer":0,
			"byteLength":1026853,
			"byteOffset":303392
		}
	],
	"samplers":[
		{
			"magFilter":9729,
			"minFilter":9987,
			"wrapS":33071,
			"wrapT":33071
		}
	],
	"buffers":[
		{
			"byteLength":1330248,
			"uri":"data:application/octet-stream;base64,"
		}
	]
}
