{
	"asset":{
		"generator":"Khronos glTF Blender I/O v4.2.60",
		"version":"2.0"
	},
	"scene":0,
	"scenes":[
		{
			"name":"Scene",
			"nodes":[
				0
			]
		}
	],
	"nodes":[
		{
			"mesh":0,
			"name":"Plane",
			"scale":[
				2,
				1,
				1
			]
		}
	],
	"materials":[
		{
			"doubleSided":true,
			"name":"Material.001",
			"pbrMetallicRoughness":{
				"baseColorTexture":{
					"index":0
				},
				"metallicFactor":0
			}
		}
	],
	"meshes":[
		{
			"name":"Plane",
			"primitives":[
				{
					"attributes":{
						"POSITION":0,
						"NORMAL":1,
						"TEXCOORD_0":2
					},
					"indices":3,
					"material":0
				}
			]
		}
	],
	"textures":[
		{
			"sampler":0,
			"source":0
		}
	],
	"images":[
		{
			"bufferView":4,
			"mimeType":"image/jpeg",
			"name":"warpreduce1"
		}
	],
	"accessors":[
		{
			"bufferView":0,
			"componentType":5126,
			"count":5330,
			"max":[
				0.5,
				0.8986951112747192,
				-0.4999999701976776
			],
			"min":[
				0.2499999850988388,
				0.6790697574615479,
				-0.9137891530990601
			],
			"type":"VEC3"
		},
		{
			"bufferView":1,
			"componentType":5126,
			"count":5330,
			"type":"VEC3"
		},
		{
			"bufferView":2,
			"componentType":5126,
			"count":5330,
			"type":"VEC2"
		},
		{
			"bufferView":3,
			"componentType":5123,
			"count":5544,
			"type":"SCALAR"
		}
	],
	"bufferViews":[
		{
			"buffer":0,
			"byteLength":63960,
			"byteOffset":0,
			"target":34962
		},
		{
			"buffer":0,
			"byteLength":63960,
			"byteOffset":63960,
			"target":34962
		},
		{
			"buffer":0,
			"byteLength":42640,
			"byteOffset":127920,
			"target":34962
		},
		{
			"buffer":0,
			"byteLength":11088,
			"byteOffset":170560,
			"target":34963
		},
		{
			"buffer":0,
			"byteLength":1026853,
			"byteOffset":181648
		}
	],
	"samplers":[
		{
			"magFilter":9729,
			"minFilter":9987
		}
	],
	"buffers":[
		{
			"byteLength":1208504,
			"uri":"data:application/octet-stream;base64,"
		}
	]
}
