{
	"asset":{
		"generator":"Khronos glTF Blender I/O v4.3.47",
		"version":"2.0"
	},
	"scene":0,
	"scenes":[
		{
			"name":"Scene",
			"nodes":[
				0
			]
		}
	],
	"nodes":[
		{
			"mesh":0,
			"name":"18.070",
			"translation":[
				-2,
				-1,
				-0.5
			]
		}
	],
	"animations":[
		{
			"channels":[
				{
					"sampler":0,
					"target":{
						"node":0,
						"path":"translation"
					}
				}
			],
			"name":"18.4963Action.050",
			"samplers":[
				{
					"input":4,
					"interpolation":"LINEAR",
					"output":5
				}
			]
		}
	],
	"materials":[
		{
			"doubleSided":true,
			"name":"Material.005",
			"pbrMetallicRoughness":{
				"baseColorTexture":{
					"index":0
				},
				"metallicFactor":0
			}
		}
	],
	"meshes":[
		{
			"name":"Plane.082",
			"primitives":[
				{
					"attributes":{
						"POSITION":0,
						"NORMAL":1,
						"TEXCOORD_0":2
					},
					"indices":3,
					"material":0
				}
			]
		}
	],
	"textures":[
		{
			"sampler":0,
			"source":0
		}
	],
	"images":[
		{
			"bufferView":4,
			"mimeType":"image/jpeg",
			"name":"Tile_9993"
		}
	],
	"accessors":[
		{
			"bufferView":0,
			"componentType":5126,
			"count":16384,
			"max":[
				1,
				1.1391454935073853,
				-0.5
			],
			"min":[
				0.5,
				0.9153690338134766,
				-1
			],
			"type":"VEC3"
		},
		{
			"bufferView":1,
			"componentType":5126,
			"count":16384,
			"type":"VEC3"
		},
		{
			"bufferView":2,
			"componentType":5126,
			"count":16384,
			"type":"VEC2"
		},
		{
			"bufferView":3,
			"componentType":5123,
			"count":24576,
			"type":"SCALAR"
		},
		{
			"bufferView":5,
			"componentType":5126,
			"count":2,
			"max":[
				0.041666666666666664
			],
			"min":[
				0
			],
			"type":"SCALAR"
		},
		{
			"bufferView":6,
			"componentType":5126,
			"count":2,
			"type":"VEC3"
		}
	],
	"bufferViews":[
		{
			"buffer":0,
			"byteLength":196608,
			"byteOffset":0,
			"target":34962
		},
		{
			"buffer":0,
			"byteLength":196608,
			"byteOffset":196608,
			"target":34962
		},
		{
			"buffer":0,
			"byteLength":131072,
			"byteOffset":393216,
			"target":34962
		},
		{
			"buffer":0,
			"byteLength":49152,
			"byteOffset":524288,
			"target":34963
		},
		{
			"buffer":0,
			"byteLength":284272,
			"byteOffset":573440
		},
		{
			"buffer":0,
			"byteLength":8,
			"byteOffset":857712
		},
		{
			"buffer":0,
			"byteLength":24,
			"byteOffset":857720
		}
	],
	"samplers":[
		{
			"magFilter":9729,
			"minFilter":9987
		}
	],
	"buffers":[
		{
			"byteLength":857744,
			"uri":"data:application/octet-stream;base64,"
		}
	]
}
