{
	"asset":{
		"generator":"Khronos glTF Blender I/O v4.3.47",
		"version":"2.0"
	},
	"scene":0,
	"scenes":[
		{
			"name":"Scene",
			"nodes":[
				0
			]
		}
	],
	"nodes":[
		{
			"mesh":0,
			"name":"18.020",
			"translation":[
				-1,
				-1,
				-0.5
			]
		}
	],
	"animations":[
		{
			"channels":[
				{
					"sampler":0,
					"target":{
						"node":0,
						"path":"translation"
					}
				}
			],
			"name":"18.4963Action.015",
			"samplers":[
				{
					"input":4,
					"interpolation":"LINEAR",
					"output":5
				}
			]
		}
	],
	"materials":[
		{
			"doubleSided":true,
			"name":"Material.008",
			"pbrMetallicRoughness":{
				"baseColorTexture":{
					"index":0
				},
				"metallicFactor":0
			}
		}
	],
	"meshes":[
		{
			"name":"Plane.020",
			"primitives":[
				{
					"attributes":{
						"POSITION":0,
						"NORMAL":1,
						"TEXCOORD_0":2
					},
					"indices":3,
					"material":0
				}
			]
		}
	],
	"textures":[
		{
			"sampler":0,
			"source":0
		}
	],
	"images":[
		{
			"bufferView":4,
			"mimeType":"image/jpeg",
			"name":"Tile_0093"
		}
	],
	"accessors":[
		{
			"bufferView":0,
			"componentType":5126,
			"count":16382,
			"max":[
				1,
				1.4721972942352295,
				0
			],
			"min":[
				0.5,
				1.0082066059112549,
				-0.5
			],
			"type":"VEC3"
		},
		{
			"bufferView":1,
			"componentType":5126,
			"count":16382,
			"type":"VEC3"
		},
		{
			"bufferView":2,
			"componentType":5126,
			"count":16382,
			"type":"VEC2"
		},
		{
			"bufferView":3,
			"componentType":5123,
			"count":24576,
			"type":"SCALAR"
		},
		{
			"bufferView":5,
			"componentType":5126,
			"count":2,
			"max":[
				0.041666666666666664
			],
			"min":[
				0
			],
			"type":"SCALAR"
		},
		{
			"bufferView":6,
			"componentType":5126,
			"count":2,
			"type":"VEC3"
		}
	],
	"bufferViews":[
		{
			"buffer":0,
			"byteLength":196584,
			"byteOffset":0,
			"target":34962
		},
		{
			"buffer":0,
			"byteLength":196584,
			"byteOffset":196584,
			"target":34962
		},
		{
			"buffer":0,
			"byteLength":131056,
			"byteOffset":393168,
			"target":34962
		},
		{
			"buffer":0,
			"byteLength":49152,
			"byteOffset":524224,
			"target":34963
		},
		{
			"buffer":0,
			"byteLength":251733,
			"byteOffset":573376
		},
		{
			"buffer":0,
			"byteLength":8,
			"byteOffset":825112
		},
		{
			"buffer":0,
			"byteLength":24,
			"byteOffset":825120
		}
	],
	"samplers":[
		{
			"magFilter":9729,
			"minFilter":9987
		}
	],
	"buffers":[
		{
			"byteLength":825144,
			"uri":"data:application/octet-stream;base64,"
		}
	]
}
