{
	"asset":{
		"generator":"Khronos glTF Blender I/O v4.3.47",
		"version":"2.0"
	},
	"scene":0,
	"scenes":[
		{
			"name":"Scene",
			"nodes":[
				0
			]
		}
	],
	"nodes":[
		{
			"mesh":0,
			"name":"18.004",
			"translation":[
				-2,
				-1,
				1.5
			]
		}
	],
	"animations":[
		{
			"channels":[
				{
					"sampler":0,
					"target":{
						"node":0,
						"path":"translation"
					}
				}
			],
			"name":"18.9891Action.004",
			"samplers":[
				{
					"input":4,
					"interpolation":"LINEAR",
					"output":5
				}
			]
		}
	],
	"materials":[
		{
			"doubleSided":true,
			"name":"Material.002",
			"pbrMetallicRoughness":{
				"baseColorTexture":{
					"index":0
				},
				"metallicFactor":0
			}
		}
	],
	"meshes":[
		{
			"name":"Plane.004",
			"primitives":[
				{
					"attributes":{
						"POSITION":0,
						"NORMAL":1,
						"TEXCOORD_0":2
					},
					"indices":3,
					"material":0
				}
			]
		}
	],
	"textures":[
		{
			"sampler":0,
			"source":0
		}
	],
	"images":[
		{
			"bufferView":4,
			"mimeType":"image/jpeg",
			"name":"Tile_9991"
		}
	],
	"accessors":[
		{
			"bufferView":0,
			"componentType":5126,
			"count":13664,
			"max":[
				0.5078125,
				1.2462674379348755,
				-0.0234375
			],
			"min":[
				0,
				0.7227017879486084,
				-0.5
			],
			"type":"VEC3"
		},
		{
			"bufferView":1,
			"componentType":5126,
			"count":13664,
			"type":"VEC3"
		},
		{
			"bufferView":2,
			"componentType":5126,
			"count":13664,
			"type":"VEC2"
		},
		{
			"bufferView":3,
			"componentType":5123,
			"count":20496,
			"type":"SCALAR"
		},
		{
			"bufferView":5,
			"componentType":5126,
			"count":2,
			"max":[
				0.041666666666666664
			],
			"min":[
				0
			],
			"type":"SCALAR"
		},
		{
			"bufferView":6,
			"componentType":5126,
			"count":2,
			"type":"VEC3"
		}
	],
	"bufferViews":[
		{
			"buffer":0,
			"byteLength":163968,
			"byteOffset":0,
			"target":34962
		},
		{
			"buffer":0,
			"byteLength":163968,
			"byteOffset":163968,
			"target":34962
		},
		{
			"buffer":0,
			"byteLength":109312,
			"byteOffset":327936,
			"target":34962
		},
		{
			"buffer":0,
			"byteLength":40992,
			"byteOffset":437248,
			"target":34963
		},
		{
			"buffer":0,
			"byteLength":215554,
			"byteOffset":478240
		},
		{
			"buffer":0,
			"byteLength":8,
			"byteOffset":693796
		},
		{
			"buffer":0,
			"byteLength":24,
			"byteOffset":693804
		}
	],
	"samplers":[
		{
			"magFilter":9729,
			"minFilter":9987
		}
	],
	"buffers":[
		{
			"byteLength":693828,
			"uri":"data:application/octet-stream;base64,"
		}
	]
}
