{
	"asset":{
		"generator":"Khronos glTF Blender I/O v4.3.47",
		"version":"2.0"
	},
	"scene":0,
	"scenes":[
		{
			"name":"Scene",
			"nodes":[
				0
			]
		}
	],
	"nodes":[
		{
			"mesh":0,
			"name":"18.060",
			"translation":[
				0,
				-1,
				1.5
			]
		}
	],
	"animations":[
		{
			"channels":[
				{
					"sampler":0,
					"target":{
						"node":0,
						"path":"translation"
					}
				}
			],
			"name":"18.9891Action.032",
			"samplers":[
				{
					"input":4,
					"interpolation":"LINEAR",
					"output":5
				}
			]
		}
	],
	"materials":[
		{
			"doubleSided":true,
			"name":"Material.009",
			"pbrMetallicRoughness":{
				"baseColorTexture":{
					"index":0
				},
				"metallicFactor":0
			}
		}
	],
	"meshes":[
		{
			"name":"Plane.087",
			"primitives":[
				{
					"attributes":{
						"POSITION":0,
						"NORMAL":1,
						"TEXCOORD_0":2
					},
					"indices":3,
					"material":0
				}
			]
		}
	],
	"textures":[
		{
			"sampler":0,
			"source":0
		}
	],
	"images":[
		{
			"bufferView":4,
			"mimeType":"image/jpeg",
			"name":"Tile_E_R_0192"
		}
	],
	"accessors":[
		{
			"bufferView":0,
			"componentType":5126,
			"count":16380,
			"max":[
				1,
				1.6588441133499146,
				0
			],
			"min":[
				0.5078125,
				1.343367576599121,
				-0.5078125
			],
			"type":"VEC3"
		},
		{
			"bufferView":1,
			"componentType":5126,
			"count":16380,
			"type":"VEC3"
		},
		{
			"bufferView":2,
			"componentType":5126,
			"count":16380,
			"type":"VEC2"
		},
		{
			"bufferView":3,
			"componentType":5123,
			"count":24570,
			"type":"SCALAR"
		},
		{
			"bufferView":5,
			"componentType":5126,
			"count":2,
			"max":[
				0.041666666666666664
			],
			"min":[
				0
			],
			"type":"SCALAR"
		},
		{
			"bufferView":6,
			"componentType":5126,
			"count":2,
			"type":"VEC3"
		}
	],
	"bufferViews":[
		{
			"buffer":0,
			"byteLength":196560,
			"byteOffset":0,
			"target":34962
		},
		{
			"buffer":0,
			"byteLength":196560,
			"byteOffset":196560,
			"target":34962
		},
		{
			"buffer":0,
			"byteLength":131040,
			"byteOffset":393120,
			"target":34962
		},
		{
			"buffer":0,
			"byteLength":49140,
			"byteOffset":524160,
			"target":34963
		},
		{
			"buffer":0,
			"byteLength":295608,
			"byteOffset":573300
		},
		{
			"buffer":0,
			"byteLength":8,
			"byteOffset":868908
		},
		{
			"buffer":0,
			"byteLength":24,
			"byteOffset":868916
		}
	],
	"samplers":[
		{
			"magFilter":9729,
			"minFilter":9987
		}
	],
	"buffers":[
		{
			"byteLength":868940,
			"uri":"data:application/octet-stream;base64,"
		}
	]
}
