{
	"asset":{
		"generator":"Khronos glTF Blender I/O v4.3.47",
		"version":"2.0"
	},
	"scene":0,
	"scenes":[
		{
			"name":"Scene",
			"nodes":[
				0
			]
		}
	],
	"nodes":[
		{
			"mesh":0,
			"name":"18.014",
			"translation":[
				0,
				-1,
				-0.5
			]
		}
	],
	"animations":[
		{
			"channels":[
				{
					"sampler":0,
					"target":{
						"node":0,
						"path":"translation"
					}
				}
			],
			"name":"18.4963Action.009",
			"samplers":[
				{
					"input":4,
					"interpolation":"LINEAR",
					"output":5
				}
			]
		}
	],
	"materials":[
		{
			"doubleSided":true,
			"name":"Material.014",
			"pbrMetallicRoughness":{
				"baseColorTexture":{
					"index":0
				},
				"metallicFactor":0
			}
		}
	],
	"meshes":[
		{
			"name":"Plane.014",
			"primitives":[
				{
					"attributes":{
						"POSITION":0,
						"NORMAL":1,
						"TEXCOORD_0":2
					},
					"indices":3,
					"material":0
				}
			]
		}
	],
	"textures":[
		{
			"sampler":0,
			"source":0
		}
	],
	"images":[
		{
			"bufferView":4,
			"mimeType":"image/jpeg",
			"name":"Tile_0193"
		}
	],
	"accessors":[
		{
			"bufferView":0,
			"componentType":5126,
			"count":10196,
			"max":[
				0.4140625,
				1.4505069255828857,
				-0.5
			],
			"min":[
				0,
				1.231661319732666,
				-0.984375
			],
			"type":"VEC3"
		},
		{
			"bufferView":1,
			"componentType":5126,
			"count":10196,
			"type":"VEC3"
		},
		{
			"bufferView":2,
			"componentType":5126,
			"count":10196,
			"type":"VEC2"
		},
		{
			"bufferView":3,
			"componentType":5123,
			"count":15294,
			"type":"SCALAR"
		},
		{
			"bufferView":5,
			"componentType":5126,
			"count":2,
			"max":[
				0.041666666666666664
			],
			"min":[
				0
			],
			"type":"SCALAR"
		},
		{
			"bufferView":6,
			"componentType":5126,
			"count":2,
			"type":"VEC3"
		}
	],
	"bufferViews":[
		{
			"buffer":0,
			"byteLength":122352,
			"byteOffset":0,
			"target":34962
		},
		{
			"buffer":0,
			"byteLength":122352,
			"byteOffset":122352,
			"target":34962
		},
		{
			"buffer":0,
			"byteLength":81568,
			"byteOffset":244704,
			"target":34962
		},
		{
			"buffer":0,
			"byteLength":30588,
			"byteOffset":326272,
			"target":34963
		},
		{
			"buffer":0,
			"byteLength":203321,
			"byteOffset":356860
		},
		{
			"buffer":0,
			"byteLength":8,
			"byteOffset":560184
		},
		{
			"buffer":0,
			"byteLength":24,
			"byteOffset":560192
		}
	],
	"samplers":[
		{
			"magFilter":9729,
			"minFilter":9987
		}
	],
	"buffers":[
		{
			"byteLength":560216,
			"uri":"data:application/octet-stream;base64,"
		}
	]
}
