{
	"asset":{
		"generator":"Khronos glTF Blender I/O v4.3.47",
		"version":"2.0"
	},
	"scene":0,
	"scenes":[
		{
			"name":"Scene",
			"nodes":[
				0
			]
		}
	],
	"nodes":[
		{
			"mesh":0,
			"name":"18.022",
			"translation":[
				0,
				-1,
				-0.5
			]
		}
	],
	"animations":[
		{
			"channels":[
				{
					"sampler":0,
					"target":{
						"node":0,
						"path":"translation"
					}
				}
			],
			"name":"18.4963Action.017",
			"samplers":[
				{
					"input":4,
					"interpolation":"LINEAR",
					"output":5
				}
			]
		}
	],
	"materials":[
		{
			"doubleSided":true,
			"name":"Material.014",
			"pbrMetallicRoughness":{
				"baseColorTexture":{
					"index":0
				},
				"metallicFactor":0
			}
		}
	],
	"meshes":[
		{
			"name":"Plane.022",
			"primitives":[
				{
					"attributes":{
						"POSITION":0,
						"NORMAL":1,
						"TEXCOORD_0":2
					},
					"indices":3,
					"material":0
				}
			]
		}
	],
	"textures":[
		{
			"sampler":0,
			"source":0
		}
	],
	"images":[
		{
			"bufferView":4,
			"mimeType":"image/jpeg",
			"name":"Tile_0193"
		}
	],
	"accessors":[
		{
			"bufferView":0,
			"componentType":5126,
			"count":11700,
			"max":[
				1,
				1.636805534362793,
				0
			],
			"min":[
				0.4140625,
				1.2024550437927246,
				-0.3046875
			],
			"type":"VEC3"
		},
		{
			"bufferView":1,
			"componentType":5126,
			"count":11700,
			"type":"VEC3"
		},
		{
			"bufferView":2,
			"componentType":5126,
			"count":11700,
			"type":"VEC2"
		},
		{
			"bufferView":3,
			"componentType":5123,
			"count":17550,
			"type":"SCALAR"
		},
		{
			"bufferView":5,
			"componentType":5126,
			"count":2,
			"max":[
				0.041666666666666664
			],
			"min":[
				0
			],
			"type":"SCALAR"
		},
		{
			"bufferView":6,
			"componentType":5126,
			"count":2,
			"type":"VEC3"
		}
	],
	"bufferViews":[
		{
			"buffer":0,
			"byteLength":140400,
			"byteOffset":0,
			"target":34962
		},
		{
			"buffer":0,
			"byteLength":140400,
			"byteOffset":140400,
			"target":34962
		},
		{
			"buffer":0,
			"byteLength":93600,
			"byteOffset":280800,
			"target":34962
		},
		{
			"buffer":0,
			"byteLength":35100,
			"byteOffset":374400,
			"target":34963
		},
		{
			"buffer":0,
			"byteLength":203321,
			"byteOffset":409500
		},
		{
			"buffer":0,
			"byteLength":8,
			"byteOffset":612824
		},
		{
			"buffer":0,
			"byteLength":24,
			"byteOffset":612832
		}
	],
	"samplers":[
		{
			"magFilter":9729,
			"minFilter":9987
		}
	],
	"buffers":[
		{
			"byteLength":612856,
			"uri":"data:application/octet-stream;base64,"
		}
	]
}
