{
	"asset":{
		"generator":"Khronos glTF Blender I/O v4.3.47",
		"version":"2.0"
	},
	"scene":0,
	"scenes":[
		{
			"name":"Scene",
			"nodes":[
				0
			]
		}
	],
	"nodes":[
		{
			"mesh":0,
			"name":"18.032",
			"translation":[
				-1,
				-1,
				1.5
			]
		}
	],
	"animations":[
		{
			"channels":[
				{
					"sampler":0,
					"target":{
						"node":0,
						"path":"translation"
					}
				}
			],
			"name":"18.9891Action.009",
			"samplers":[
				{
					"input":4,
					"interpolation":"LINEAR",
					"output":5
				}
			]
		}
	],
	"materials":[
		{
			"doubleSided":true,
			"name":"Material.006",
			"pbrMetallicRoughness":{
				"baseColorTexture":{
					"index":0
				},
				"metallicFactor":0
			}
		}
	],
	"meshes":[
		{
			"name":"Plane.032",
			"primitives":[
				{
					"attributes":{
						"POSITION":0,
						"NORMAL":1,
						"TEXCOORD_0":2
					},
					"indices":3,
					"material":0
				}
			]
		}
	],
	"textures":[
		{
			"sampler":0,
			"source":0
		}
	],
	"images":[
		{
			"bufferView":4,
			"mimeType":"image/jpeg",
			"name":"Tile_0091"
		}
	],
	"accessors":[
		{
			"bufferView":0,
			"componentType":5126,
			"count":16105,
			"max":[
				1,
				1.2427269220352173,
				-0.5
			],
			"min":[
				0.5078125,
				0.9572266340255737,
				-1
			],
			"type":"VEC3"
		},
		{
			"bufferView":1,
			"componentType":5126,
			"count":16105,
			"type":"VEC3"
		},
		{
			"bufferView":2,
			"componentType":5126,
			"count":16105,
			"type":"VEC2"
		},
		{
			"bufferView":3,
			"componentType":5123,
			"count":24192,
			"type":"SCALAR"
		},
		{
			"bufferView":5,
			"componentType":5126,
			"count":2,
			"max":[
				0.041666666666666664
			],
			"min":[
				0
			],
			"type":"SCALAR"
		},
		{
			"bufferView":6,
			"componentType":5126,
			"count":2,
			"type":"VEC3"
		}
	],
	"bufferViews":[
		{
			"buffer":0,
			"byteLength":193260,
			"byteOffset":0,
			"target":34962
		},
		{
			"buffer":0,
			"byteLength":193260,
			"byteOffset":193260,
			"target":34962
		},
		{
			"buffer":0,
			"byteLength":128840,
			"byteOffset":386520,
			"target":34962
		},
		{
			"buffer":0,
			"byteLength":48384,
			"byteOffset":515360,
			"target":34963
		},
		{
			"buffer":0,
			"byteLength":291943,
			"byteOffset":563744
		},
		{
			"buffer":0,
			"byteLength":8,
			"byteOffset":855688
		},
		{
			"buffer":0,
			"byteLength":24,
			"byteOffset":855696
		}
	],
	"samplers":[
		{
			"magFilter":9729,
			"minFilter":9987
		}
	],
	"buffers":[
		{
			"byteLength":855720,
			"uri":"data:application/octet-stream;base64,"
		}
	]
}
