{
	"asset":{
		"generator":"Khronos glTF Blender I/O v4.3.47",
		"version":"2.0"
	},
	"scene":0,
	"scenes":[
		{
			"name":"Scene",
			"nodes":[
				0
			]
		}
	],
	"nodes":[
		{
			"mesh":0,
			"name":"18.069",
			"translation":[
				-2,
				-1,
				0.5
			]
		}
	],
	"animations":[
		{
			"channels":[
				{
					"sampler":0,
					"target":{
						"node":0,
						"path":"translation"
					}
				}
			],
			"name":"18.4963Action.049",
			"samplers":[
				{
					"input":4,
					"interpolation":"LINEAR",
					"output":5
				}
			]
		}
	],
	"materials":[
		{
			"doubleSided":true,
			"name":"Material.003",
			"pbrMetallicRoughness":{
				"baseColorTexture":{
					"index":0
				},
				"metallicFactor":0
			}
		}
	],
	"meshes":[
		{
			"name":"Plane.080",
			"primitives":[
				{
					"attributes":{
						"POSITION":0,
						"NORMAL":1,
						"TEXCOORD_0":2
					},
					"indices":3,
					"material":0
				}
			]
		}
	],
	"textures":[
		{
			"sampler":0,
			"source":0
		}
	],
	"images":[
		{
			"bufferView":4,
			"mimeType":"image/jpeg",
			"name":"Tile_9992"
		}
	],
	"accessors":[
		{
			"bufferView":0,
			"componentType":5126,
			"count":16114,
			"max":[
				0.5,
				0.9070107340812683,
				0
			],
			"min":[
				0,
				0.7364981770515442,
				-0.4921875
			],
			"type":"VEC3"
		},
		{
			"bufferView":1,
			"componentType":5126,
			"count":16114,
			"type":"VEC3"
		},
		{
			"bufferView":2,
			"componentType":5126,
			"count":16114,
			"type":"VEC2"
		},
		{
			"bufferView":3,
			"componentType":5123,
			"count":24192,
			"type":"SCALAR"
		},
		{
			"bufferView":5,
			"componentType":5126,
			"count":2,
			"max":[
				0.041666666666666664
			],
			"min":[
				0
			],
			"type":"SCALAR"
		},
		{
			"bufferView":6,
			"componentType":5126,
			"count":2,
			"type":"VEC3"
		}
	],
	"bufferViews":[
		{
			"buffer":0,
			"byteLength":193368,
			"byteOffset":0,
			"target":34962
		},
		{
			"buffer":0,
			"byteLength":193368,
			"byteOffset":193368,
			"target":34962
		},
		{
			"buffer":0,
			"byteLength":128912,
			"byteOffset":386736,
			"target":34962
		},
		{
			"buffer":0,
			"byteLength":48384,
			"byteOffset":515648,
			"target":34963
		},
		{
			"buffer":0,
			"byteLength":227080,
			"byteOffset":564032
		},
		{
			"buffer":0,
			"byteLength":8,
			"byteOffset":791112
		},
		{
			"buffer":0,
			"byteLength":24,
			"byteOffset":791120
		}
	],
	"samplers":[
		{
			"magFilter":9729,
			"minFilter":9987
		}
	],
	"buffers":[
		{
			"byteLength":791144,
			"uri":"data:application/octet-stream;base64,"
		}
	]
}
